<svg viewBox="0 0 31.936 31.936" version="1.1" xmlns="http://www.w3.org/2000/svg" xmlns:xlink="http://www.w3.org/1999/xlink">
	<g fill="currentColor">
		<path d="M14.552,16.673v-2.947c0,0-2.659-1.407-5.301-1.407s-5.22,1.448-5.22,1.448v2.372c-0.757,1.431-0.719,2.881-0.719,2.881
			l0.448,7.32l-0.226,2.171h5.565l-1.635-3.102l0.484-0.12v-1.845c-1.869-0.586-3.247-2.252-3.401-4.272l1.283,0.183v0.783h3.361
			v-0.554h0.592v0.554h3.361v-0.762l1.068-0.167c-0.062,1.692-0.936,3.957-3.531,4.294v1.722h0.007l0.618,0.294l-1.661,2.992h3.2
			c0.012-0.066,0.022-0.135,0.034-0.202l0.028,0.202h2.11l-0.331-2.996c0.107-0.797,0.473-2.045,0.525-3.291
			c0.048-1.1,0.103-3.498-0.696-5.564C14.539,16.668,14.552,16.673,14.552,16.673z M8.816,19.764H6.204v-1.329h2.612V19.764z
			 M12.771,19.764h-2.613v-1.329h2.613V19.764z M13.145,18.807V18.06H9.783v0.778H9.191V18.06H5.83v0.729l-1.297-0.188
			c0.01-0.095,0.024-0.188,0.033-0.284c1.352-0.091,2.878-1.156,2.997-2.638c1.708,1.415,4.131,1.484,6.149,1.667
			c0.251,0.116,0.438,0.624,0.489,1.298L13.145,18.807z"/>
		<path d="M18.55,12.511l-1.047-0.579v-0.275c0,0,0.295-1.493-1.379-0.713c-0.085,0.047-0.131,0.094-0.149,0.139L9.071,7.255
			L0,12.447l3.426,1.556v-0.506c0,0,2.874-1.613,5.82-1.613c2.946,0,5.911,1.568,5.911,1.568v0.883l1.89-1.016
			c0,1.177,0,3.692,0,4.112h-0.629v1.462l0.837-0.579l0.929,0.579v-1.462h-0.681v-4.358L18.55,12.511z M17.047,11.404
			c0,0.035,0,0.133,0,0.275l-0.552-0.306C16.697,11.238,17.047,11.055,17.047,11.404z M16.859,13.017
			c-0.243,0-0.441-0.198-0.441-0.441c0-0.245,0.198-0.443,0.441-0.443c0.244,0,0.442,0.198,0.442,0.443
			C17.303,12.819,17.104,13.017,16.859,13.017z"/>
		<polygon points="28.984,16.966 27.948,16.966 26.395,16.966 24.842,18.825 23.238,16.966 21.6,16.966 20.43,16.966 19.527,16.966
			19.527,19.731 29.866,19.731 29.785,16.966 		"/>
		<path d="M24.77,16.333c2.324,0,4.209-1.883,4.209-4.207c0-0.521-0.102-1.021-0.275-1.482c0.09,0.034,0.145,0.057,0.145,0.057
			V8.423c0,0-2.055-1.087-4.095-1.087c-2.041,0-4.032,1.118-4.032,1.118V10.7c0,0,0.041-0.018,0.113-0.045
			c-0.171,0.459-0.27,0.953-0.27,1.471C20.562,14.45,22.445,16.333,24.77,16.333z"/>
		<path d="M31.127,7.919l0.809-0.434l-0.809-0.448V6.825c0,0,0.229-1.154-1.064-0.551c-0.066,0.037-0.103,0.072-0.117,0.107
			l-5.332-2.956l-7.008,4.01l2.646,1.203V8.247c0,0,2.22-1.246,4.496-1.246s4.565,1.211,4.565,1.211v0.682l1.461-0.784
			c0,0.909,0,2.853,0,3.177h-0.486v1.128l0.646-0.447l0.719,0.447v-1.129h-0.526L31.127,7.919L31.127,7.919z M30.773,6.63
			c0,0.027,0,0.102,0,0.212l-0.426-0.236C30.504,6.502,30.773,6.361,30.773,6.63z M30.63,7.875c-0.188,0-0.342-0.151-0.342-0.341
			s0.153-0.342,0.342-0.342s0.343,0.152,0.343,0.342S30.818,7.875,30.63,7.875z"/>
	</g>
</svg>
