<svg xmlns="http://www.w3.org/2000/svg" class="svg-icons">
    <symbol id="svg_arrow_left" viewBox="0 0 791.966 791.967">
       <path fill="currentColor" d="M245.454,396.017L617.077,56.579c12.973-12.94,12.973-33.934,0-46.874c-12.973-12.94-34.033-12.94-47.006,0
				L174.615,370.896c-6.932,6.899-9.87,16.076-9.408,25.087c-0.462,9.045,2.476,18.188,9.408,25.088l395.456,361.19
				c12.973,12.94,34.033,12.94,47.006,0c12.973-12.939,12.973-33.934,0-46.873L245.454,396.017z"/> 
    </symbol>
    <symbol id="svg_arrow_right" viewBox="0 0 792.033 792.033">
       <path fill="currentColor" d="M617.858,370.896L221.513,9.705c-13.006-12.94-34.099-12.94-47.105,0c-13.006,12.939-13.006,33.934,0,46.874
				l372.447,339.438L174.441,735.454c-13.006,12.94-13.006,33.935,0,46.874s34.099,12.939,47.104,0l396.346-361.191
				c6.932-6.898,9.904-16.043,9.441-25.087C627.763,386.972,624.792,377.828,617.858,370.896z"/> 
    </symbol>
    <symbol id="svg_article" viewBox="0 0 512 512">
       <g fill="currentColor"> <path d="M438.857,0H73.143c-14.629,0-25.6,10.971-25.6,25.6v460.8c0,14.629,10.971,25.6,25.6,25.6h365.714
  	   c14.629,0,25.6-10.971,25.6-25.6V25.6C464.457,10.971,453.486,0,438.857,0z M427.886,475.429H84.114V36.571h343.771V475.429z"/> <path d="M398.629,64H113.371c-10.971,0-18.286,7.314-18.286,18.286v78.628c0,10.971,7.314,18.286,18.286,18.286h285.257
			c10.971,0,18.286-7.314,18.286-18.286V82.286C416.914,71.315,409.6,64,398.629,64z M380.343,142.63H131.657c0,0,0-42.058,0-42.058
			h248.686V142.63z"/> <path d="M224.914,332.8H113.371c-10.971,0-18.286,7.314-18.286,18.286v64c0,9.142,7.314,18.286,18.286,18.286h111.542
			c10.971,0,18.286-7.314,18.286-18.286v-64C243.2,340.114,235.885,332.8,224.914,332.8z M206.628,396.8h-74.971v-27.429h74.971
			V396.8z"/> <path d="M398.629,206.629H113.371c-10.971,0-18.286,7.314-18.286,18.286s7.314,18.286,18.286,18.286h285.257
			c10.971,0,18.286-7.314,18.286-18.286S409.6,206.629,398.629,206.629z"/> <path d="M398.629,268.8H113.371c-10.971,0-18.286,7.314-18.286,18.286c0,10.97,7.314,18.286,18.286,18.286h285.257
			c10.971,0,18.286-7.314,18.286-18.286S409.6,268.8,398.629,268.8z"/> <path d="M398.629,332.8H287.085c-10.971,0-18.286,7.314-18.286,18.286s7.314,18.286,18.286,18.286h111.543
			c10.971,0,18.286-7.314,18.286-18.286S409.6,332.8,398.629,332.8z"/> <path d="M398.629,396.8H287.085c-10.971,0-18.286,7.314-18.286,18.286s7.314,18.286,18.286,18.286h111.543
			c10.971,0,18.286-7.314,18.286-18.286S409.6,396.8,398.629,396.8z"/> </g> 
    </symbol>
    <symbol id="svg_audio" viewBox="0 0 512 512">
       <g fill="currentColor"> <path d="M299.476,70.848c-10.399-5.568-22.956-4.96-32.77,1.583l-137.195,91.466H77.498c-13.339,0-24.299,10.298-25.394,23.358
			H44.76c-24.681,0-44.76,20.079-44.76,44.76v47.972c0,24.681,20.079,44.76,44.76,44.76h7.343
			c1.096,13.06,12.057,23.358,25.394,23.358h52.012l137.195,91.466c5.351,3.566,11.516,5.37,17.704,5.369
			c5.161,0,10.338-1.255,15.066-3.786c10.4-5.566,16.859-16.35,16.859-28.145V98.993C316.335,87.198,309.875,76.413,299.476,70.848z
			 M51.994,299.418H44.76c-10.714-0.001-19.43-8.717-19.43-19.432v-47.972c0-10.714,8.716-19.43,19.43-19.43h7.234V299.418z
			 M120.68,322.775H77.498c-0.095,0-0.174-0.077-0.174-0.174V189.4c0-0.096,0.078-0.174,0.174-0.174h43.182V322.775z
			 M291.006,413.01c0,3.564-2.434,5.252-3.482,5.812c-1.047,0.56-3.802,1.65-6.768-0.327l-134.747-89.833V183.34l134.747-89.832
			c2.967-1.977,5.722-0.887,6.768-0.327c1.047,0.56,3.482,2.248,3.482,5.812V413.01z"/> <path d="M445.607,95.47c-4.452-4.452-11.668-4.452-16.12,0c-4.452,4.452-4.452,11.668,0,16.12
			c38.509,38.509,59.716,89.795,59.716,144.411c0,54.617-21.209,105.904-59.717,144.412c-4.452,4.452-4.452,11.668,0,16.119
			c2.225,2.227,5.142,3.338,8.06,3.338c2.917,0,5.835-1.113,8.06-3.338C488.421,373.717,512,316.706,512,255.999
			C512,195.294,488.421,138.283,445.607,95.47z"/> <path d="M383.011,158.067c-4.452-4.453-11.668-4.453-16.12-0.001s-4.452,11.668,0,16.12
			c21.815,21.815,33.829,50.871,33.828,81.816c0,30.944-12.014,60.001-33.829,81.816c-4.452,4.452-4.452,11.668,0,16.12
			c2.225,2.227,5.142,3.338,8.06,3.338c2.917,0,5.835-1.113,8.06-3.338c26.121-26.121,40.507-60.902,40.507-97.936
			C423.517,218.969,409.132,184.187,383.011,158.067z"/> </g> 
    </symbol>
    <symbol id="svg_cancel" viewBox="0 0 47.971 47.971">
       <path fill="currentColor" d="M28.228,23.986L47.092,5.122c1.172-1.171,1.172-3.071,0-4.242c-1.172-1.172-3.07-1.172-4.242,0L23.986,19.744L5.121,0.88
		c-1.172-1.172-3.07-1.172-4.242,0c-1.172,1.171-1.172,3.071,0,4.242l18.865,18.864L0.879,42.85c-1.172,1.171-1.172,3.071,0,4.242
		C1.465,47.677,2.233,47.97,3,47.97s1.535-0.293,2.121-0.879l18.865-18.864L42.85,47.091c0.586,0.586,1.354,0.879,2.121,0.879
		s1.535-0.293,2.121-0.879c1.172-1.171,1.172-3.071,0-4.242L28.228,23.986z"/> 
    </symbol>
    <symbol id="svg_clock-pending" viewBox="0 0 491.276 491.276">
       <g fill="currentColor"> <path d="M443.436,218.278c-6.241-6.204-16.319-6.204-22.56,0l-48,48l22.56,22.56l19.04-19.04
			c-13.343,105.196-109.438,179.657-214.634,166.314S20.185,326.674,33.528,221.478C45.7,125.521,127.351,53.601,224.076,53.638
			v-32C100.364,21.596,0.042,121.85,0,245.562s100.212,224.034,223.924,224.076c115.375,0.039,211.907-87.563,223.032-202.4
			l21.76,21.76l22.56-22.56L443.436,218.278z"/> <path d="M224.076,165.638v80c-0.025,4.253,1.645,8.34,4.64,11.36l48,48l22.56-22.56l-43.2-43.36v-73.44H224.076z"/> </g> 
    </symbol>
    <symbol id="svg_diagnosis" viewBox="0 0 371 371">
       <g fill="currentColor"> <path d="M151.169,97.784l-12.863,0.002c-0.248,0-1.231-0.279-1.231-1.195v-12.9c0-6.596-5.366-11.961-11.961-11.961
    	c-6.596,0-11.961,5.365-11.961,11.961v12.565c0,1.262-0.903,1.528-1.721,1.528c-0.001,0-0.003,0-0.004,0H99.059
    	c-6.596,0-11.961,5.366-11.961,11.962s5.366,11.961,11.961,11.961h12.71l0.134-0.005c1.25,0,1.25,0.987,1.25,1.358v12.741
    	c0,6.596,5.366,11.962,11.961,11.962s11.961-5.366,11.961-11.962V122.89c0-1.106,1.594-1.179,1.756-1.183h12.338
    	c6.596,0,11.962-5.365,11.962-11.961S157.765,97.784,151.169,97.784z"/> <path d="M319.5,371h-268C34.682,371,21,357.317,21,340.5v-310C21,13.683,34.682,0,51.5,0h268C336.317,0,350,13.683,350,30.5v310
    	C350,357.317,336.317,371,319.5,371z M51.5,25c-2.981,0-5.5,2.519-5.5,5.5v310c0,2.981,2.519,5.5,5.5,5.5h268
    	c2.981,0,5.5-2.519,5.5-5.5v-310c0-2.981-2.519-5.5-5.5-5.5H51.5z"/> <path d="M272.775,208.263H98.225c-3.866,0-7-3.134-7-7s3.134-7,7-7h174.551c3.866,0,7,3.134,7,7
    	S276.642,208.263,272.775,208.263z"/> <path d="M272.775,122.246h-47.96c-6.903,0-12.5-5.597-12.5-12.5s5.597-12.5,12.5-12.5h47.96c6.903,0,12.5,5.597,12.5,12.5
    	S279.679,122.246,272.775,122.246z"/> <path d="M272.775,257.915H98.225c-3.866,0-7-3.134-7-7s3.134-7,7-7h174.551c3.866,0,7,3.134,7,7
    	S276.642,257.915,272.775,257.915z"/> <path d="M268.46,316.706H93.909c-3.866,0-7-3.134-7-7s3.134-7,7-7H268.46c3.866,0,7,3.134,7,7S272.326,316.706,268.46,316.706z"/> </g> 
    </symbol>
    <symbol id="svg_edit" viewBox="0 0 528.899 528.899">
       <path fill="currentColor" d="M328.883,89.125l107.59,107.589l-272.34,272.34L56.604,361.465L328.883,89.125z M518.113,63.177l-47.981-47.981
		c-18.543-18.543-48.653-18.543-67.259,0l-45.961,45.961l107.59,107.59l53.611-53.611
		C532.495,100.753,532.495,77.559,518.113,63.177z M0.3,512.69c-1.958,8.812,5.998,16.708,14.811,14.565l119.891-29.069
		L27.473,390.597L0.3,512.69z"/> 
    </symbol>
    <symbol id="svg_envelope" viewBox="0 0 512 512">
       <path fill="currentColor" d="M469.333,64H42.667C19.135,64,0,83.135,0,106.667v298.667C0,428.865,19.135,448,42.667,448h426.667
  	C492.865,448,512,428.865,512,405.333V106.667C512,83.135,492.865,64,469.333,64z M42.667,85.333h426.667
  	c1.572,0,2.957,0.573,4.432,0.897c-36.939,33.807-159.423,145.859-202.286,184.478c-3.354,3.021-8.76,6.625-15.479,6.625
  	s-12.125-3.604-15.49-6.635C197.652,232.085,75.161,120.027,38.228,86.232C39.706,85.908,41.094,85.333,42.667,85.333z
  	 M21.333,405.333V106.667c0-2.09,0.63-3.986,1.194-5.896c28.272,25.876,113.736,104.06,169.152,154.453
  	C136.443,302.671,50.957,383.719,22.46,410.893C21.957,409.079,21.333,407.305,21.333,405.333z M469.333,426.667H42.667
  	c-1.704,0-3.219-0.594-4.81-0.974c29.447-28.072,115.477-109.586,169.742-156.009c7.074,6.417,13.536,12.268,18.63,16.858
  	c8.792,7.938,19.083,12.125,29.771,12.125s20.979-4.188,29.76-12.115c5.096-4.592,11.563-10.448,18.641-16.868
  	c54.268,46.418,140.286,127.926,169.742,156.009C472.552,426.073,471.039,426.667,469.333,426.667z M490.667,405.333
  	c0,1.971-0.624,3.746-1.126,5.56c-28.508-27.188-113.984-108.227-169.219-155.668c55.418-50.393,140.869-128.57,169.151-154.456
  	c0.564,1.91,1.194,3.807,1.194,5.897V405.333z"/> 
    </symbol>
    <symbol id="svg_file" viewBox="0 0 512 512">
       <g fill="currentColor"> <path d="M447.933,103.629c-0.034-3.076-1.224-6.09-3.485-8.352L352.683,3.511c-0.004-0.004-0.007-0.005-0.011-0.008
			C350.505,1.338,347.511,0,344.206,0H89.278C75.361,0,64.04,11.32,64.04,25.237v461.525c0,13.916,11.32,25.237,25.237,25.237
			h333.444c13.916,0,25.237-11.32,25.237-25.237V103.753C447.96,103.709,447.937,103.672,447.933,103.629z M356.194,40.931
			l50.834,50.834h-49.572c-0.695,0-1.262-0.567-1.262-1.262V40.931z M423.983,486.763c0,0.695-0.566,1.261-1.261,1.261H89.278
			c-0.695,0-1.261-0.566-1.261-1.261V25.237c0-0.695,0.566-1.261,1.261-1.261h242.94v66.527c0,13.916,11.322,25.239,25.239,25.239
			h66.527V486.763z"/> <path d="M362.088,164.014H149.912c-6.62,0-11.988,5.367-11.988,11.988c0,6.62,5.368,11.988,11.988,11.988h212.175
			c6.62,0,11.988-5.368,11.988-11.988C374.076,169.381,368.707,164.014,362.088,164.014z"/> <path d="M362.088,236.353H149.912c-6.62,0-11.988,5.368-11.988,11.988c0,6.62,5.368,11.988,11.988,11.988h212.175
			c6.62,0,11.988-5.368,11.988-11.988C374.076,241.721,368.707,236.353,362.088,236.353z"/> <path d="M362.088,308.691H149.912c-6.62,0-11.988,5.368-11.988,11.988c0,6.621,5.368,11.988,11.988,11.988h212.175
			c6.62,0,11.988-5.367,11.988-11.988C374.076,314.06,368.707,308.691,362.088,308.691z"/> <path d="M256,381.031H149.912c-6.62,0-11.988,5.368-11.988,11.988c0,6.621,5.368,11.988,11.988,11.988H256
			c6.62,0,11.988-5.367,11.988-11.988C267.988,386.398,262.62,381.031,256,381.031z"/> </g> 
    </symbol>
    <symbol id="svg_groups" viewBox="0 0 512 512">
       <g fill="currentColor"> <path d="M73.387,341.333l-50.688-0.064c3.819-14.379,15.147-25.92,30.123-29.675l42.048-10.517
			c3.819-0.96,6.827-3.947,7.765-7.765l4.992-20.011c0.939-3.755-0.235-7.723-3.051-10.368
			c-9.344-8.747-15.509-21.547-16.512-34.261c-0.448-5.547-6.272-9.408-11.84-9.408l-1.941-19.883c3.072,0,5.973-1.301,8-3.605
			c2.027-2.283,2.965-5.333,2.581-8.384c-0.917-7.147-2.347-20.011-2.347-24.171c0-12.139,0-24.704,35.349-25.045
			c2.176-0.021,4.331-0.704,6.101-1.984c5.995-4.288,12.821-6.741,21.483-7.659c5.867-0.619,10.091-5.888,9.472-11.733
			c-0.597-5.845-5.803-10.112-11.712-9.472c-11.008,1.173-20.459,4.331-28.779,9.6c-47.659,1.557-53.248,27.051-53.248,46.293
			c0,3.947,0.725,11.584,1.408,17.728c-1.856,1.088-3.541,2.496-5.035,4.16c-3.947,4.48-5.803,10.475-5.056,16.405l2.56,20.416
			c0.939,7.445,5.76,13.589,12.864,16.491c2.581,12.992,8.811,25.579,17.579,35.499l-2.005,8.064l-35.84,8.96
			C19.605,297.963,0,323.072,0,352c0,5.888,4.779,10.667,10.667,10.667h62.72c5.888,0,10.667-4.779,10.667-10.667
			C84.053,346.112,79.275,341.333,73.387,341.333z"/> <path d="M464.341,290.965l-35.84-8.96l-1.771-7.083c9.344-10.155,15.936-23.211,18.56-36.779
			c6.187-2.987,10.731-8.981,11.627-16.192l2.56-20.395c0.747-5.888-1.067-11.819-4.949-16.277
			c-1.344-1.536-2.88-2.859-4.587-3.925l0.661-13.461l2.411-2.411c5.824-6.208,13.717-19.477,1.152-38.677
			c-5.995-9.173-18.411-20.117-43.307-20.117c-10.112,0-19.029,1.365-27.264,4.203c-5.568,1.899-8.533,7.979-6.613,13.547
			c1.899,5.547,7.936,8.512,13.547,6.613c5.973-2.048,12.587-3.051,20.309-3.051c12.523,0,20.843,3.413,25.451,10.475
			c5.248,8,2.88,10.517,1.387,12.117l-5.099,5.099c-1.877,1.877-2.987,4.373-3.115,7.019l-1.237,25.536
			c-0.128,2.901,0.683,5.44,2.667,7.552c2.005,2.133,4.523,3.072,7.424,3.093l-2.603,20.011c-5.568,0-10.197,4.288-10.645,9.835
			c-1.003,12.907-7.637,26.304-17.28,34.944c-2.944,2.624-4.181,6.677-3.221,10.517l4.8,19.157c0.96,3.819,3.947,6.827,7.765,7.765
			l42.048,10.517c14.997,3.755,26.325,15.296,30.123,29.696h-50.667v21.333h62.699c5.888,0,10.667-4.779,10.667-10.667
			C512,323.072,492.395,297.984,464.341,290.965z"/> <path d="M364.629,336.512l-51.136-12.779l-3.499-13.973c13.483-13.973,22.848-32.555,26.133-51.733
			c8.171-3.2,14.315-10.688,15.445-19.84l3.477-27.819c0.875-6.933-1.259-13.909-5.845-19.179
			c-2.069-2.389-4.565-4.309-7.317-5.717l1.088-22.229l4.267-4.288c7.168-7.616,16.832-23.979,1.152-47.936
			c-11.157-17.045-29.931-25.685-55.787-25.685c-9.877,0-32.469,0-53.909,14.016c-61.867,1.643-69.888,32.448-69.888,59.285
			c0,5.824,1.237,17.771,2.219,26.389c-3.093,1.408-5.867,3.456-8.149,6.037c-4.651,5.291-6.827,12.309-5.952,19.307l3.477,27.819
			c1.216,9.771,8.128,17.643,17.152,20.437c3.285,18.325,12.139,36.203,24.768,49.856l-3.819,15.253l-51.136,12.779
			c-36.523,9.131-62.037,41.813-62.037,79.488c0,2.837,1.109,5.568,3.115,7.552s4.715,3.115,7.552,3.115l320-0.021
			c5.888,0,10.667-4.779,10.667-10.667C426.667,378.304,401.173,345.643,364.629,336.512z M107.605,405.312
			c4.117-23.189,21.44-42.24,44.928-48.107l57.344-14.336c3.819-0.96,6.827-3.947,7.765-7.765l6.827-27.285
			c0.96-3.755-0.235-7.723-3.051-10.368c-13.397-12.565-22.272-30.997-23.723-49.28c-0.448-5.547-5.077-9.813-10.645-9.813h-2.261
			c-1.643,0-3.029-1.216-3.221-2.837l-3.456-27.819c-0.149-1.259,0.427-2.133,0.789-2.56c0.363-0.405,1.152-1.088,3.883-1.088
			c3.072,0,5.973-1.301,8-3.605c2.027-2.283,2.965-5.333,2.581-8.384c-0.896-7.061-3.2-26.837-3.2-33.451
			c0-16.704,0-37.504,52.032-38.016c2.176-0.021,4.331-0.704,6.101-1.984c16.661-11.925,35.349-11.925,44.309-11.925
			c18.475,0,30.891,5.248,37.952,16.043c8.832,13.483,3.84,18.795,1.387,21.397l-6.955,6.955c-1.877,1.877-2.987,4.395-3.115,7.04
			l-1.685,34.816c-0.128,2.901,0.917,5.717,2.901,7.829s4.736,3.328,7.637,3.349c1.28,0,2.069,0.704,2.432,1.109
			c0.427,0.491,0.917,1.323,0.768,2.496l-3.477,27.84c-0.213,1.621-1.6,2.837-3.904,2.837c-5.568,0-10.197,4.267-10.645,9.813
			c-1.493,18.56-11.008,37.803-24.853,50.219c-2.944,2.645-4.181,6.699-3.221,10.539l6.549,26.155
			c0.96,3.797,3.947,6.805,7.765,7.744l57.344,14.336c23.488,5.867,40.811,24.939,44.928,48.128L107.605,405.312z"/> </g> 
    </symbol>
    <symbol id="svg_home" viewBox="0 0 301.884 301.884">
       <path fill="currentColor" d="M297.658,125.357L159.503,17.28c-2.361-1.848-5.401-2.865-8.562-2.865c-3.16,0-6.2,1.018-8.56,2.864
  	L4.226,125.357c-5.416,4.236-4.265,9.128-3.782,10.526c0.481,1.398,2.589,5.961,9.465,5.961h27.5v133.125
  	c0,6.893,5.607,12.5,12.5,12.5h64.7c6.892,0,12.5-5.607,12.5-12.5v-59.578h47.666v59.578c0,6.893,5.607,12.5,12.5,12.5h64.7
  	c6.893,0,12.5-5.607,12.5-12.5V141.844h27.5c6.876,0,8.983-4.563,9.465-5.961C301.922,134.485,303.074,129.593,297.658,125.357z
  	 M261.975,126.844c-6.893,0-12.5,5.607-12.5,12.5v133.125h-59.7v-59.578c0-6.893-5.607-12.5-12.5-12.5h-52.666
  	c-6.893,0-12.5,5.607-12.5,12.5v59.578h-59.7V139.344c0-6.893-5.608-12.5-12.5-12.5H26.669l124.272-97.217l124.272,97.217H261.975z"/> 
    </symbol>
    <symbol id="svg_image" viewBox="0 0 487.482 487.482">
       <g fill="currentColor"> <path d="M477.482,63.277H10c-5.523,0-10,4.478-10,10v340.928c0,5.522,4.477,10,10,10h467.482c5.522,0,10-4.478,10-10V73.277
			C487.482,67.755,483.005,63.277,477.482,63.277z M467.482,83.277v235.236l-104.018-80.07c-3.364-2.591-7.996-2.773-11.555-0.457
			l-68.298,44.456l-134.745-92.417c-3.192-2.189-7.362-2.34-10.706-0.384L20,258.777v-175.5H467.482z M20,404.205V281.948
			l122.786-71.841l135.024,92.608c3.337,2.286,7.723,2.34,11.111,0.134l67.959-44.235l110.602,85.138v60.453H20z"/> <path d="M280.707,218.281c26.063,0,47.266-21.202,47.266-47.264c0-26.058-21.203-47.258-47.266-47.258
			c-26.062,0-47.264,21.2-47.264,47.258C233.443,197.079,254.645,218.281,280.707,218.281z M280.707,143.76
			c15.034,0,27.266,12.228,27.266,27.258c0,15.033-12.231,27.264-27.266,27.264c-15.033,0-27.264-12.23-27.264-27.264
			C253.443,155.987,265.674,143.76,280.707,143.76z"/> </g> 
    </symbol>
    <symbol id="svg_loader" viewBox="0 0 250 250">
       <circle stroke="currentColor" stroke-width="50" stroke-dasharray="600" stroke-dashoffset="400" cx="125" cy="125" r="100" fill="transparent"/> 
    </symbol>
    <symbol id="svg_menu" viewBox="0 0 124 124">
       <g fill="currentColor"> <path d="M112,6H12C5.4,6,0,11.4,0,18s5.4,12,12,12h100c6.6,0,12-5.4,12-12S118.6,6,112,6z"/> <path d="M112,50H12C5.4,50,0,55.4,0,62c0,6.6,5.4,12,12,12h100c6.6,0,12-5.4,12-12C124,55.4,118.6,50,112,50z"/> <path d="M112,94H12c-6.6,0-12,5.4-12,12s5.4,12,12,12h100c6.6,0,12-5.4,12-12S118.6,94,112,94z"/> </g> 
    </symbol>
    <symbol id="svg_microphone" viewBox="0 0 264.02 264.02">
       <g fill="currentColor"> <path d="M210.506,126.764c-4.143,0-7.5,3.358-7.5,7.5c0,17.302-8.038,34.335-22.052,46.73
  		c-13.11,11.596-30.349,18.247-47.297,18.247h-3.295c-16.947,0-34.186-6.65-47.296-18.247
  		c-14.015-12.395-22.052-29.427-22.052-46.73c0-4.142-3.357-7.5-7.5-7.5s-7.5,3.358-7.5,7.5c0,21.598,9.883,42.726,27.114,57.966
  		c14.314,12.662,32.764,20.413,51.381,21.773v35.017H89.675c-4.143,0-7.5,3.358-7.5,7.5c0,4.142,3.357,7.5,7.5,7.5h84.667
  		c4.143,0,7.5-3.358,7.5-7.5c0-4.142-3.357-7.5-7.5-7.5H139.51v-35.017c18.617-1.361,37.067-9.112,51.382-21.773
  		c17.232-15.241,27.114-36.369,27.114-57.966C218.006,130.122,214.648,126.764,210.506,126.764z"/> <path d="M130.421,184.938h3.18c30.021,0,56.357-24.364,56.357-52.14v-80.66
  		C189.957,24.364,163.622,0,133.6,0h-3.18c-30.022,0-56.357,24.364-56.357,52.138v80.66
  		C74.063,160.573,100.398,184.938,130.421,184.938z M89.063,52.138C89.063,32.701,108.776,15,130.421,15h3.18
  		c21.645,0,41.357,17.701,41.357,37.138v80.66c0,19.438-19.712,37.14-41.357,37.14h-3.18c-21.644,0-41.357-17.702-41.357-37.14
  		V52.138z"/> </g> 
    </symbol>
    <symbol id="svg_new-message" viewBox="0 0 512.001 512.001">
       <g fill="currentColor"> <path d="M496.063,62.299l-46.396-46.4c-21.2-21.199-55.69-21.198-76.888,0l-18.16,18.161l123.284,123.294l18.16-18.161
			C517.311,117.944,517.314,83.55,496.063,62.299z"/> <path d="M22.012,376.747L0.251,494.268c-0.899,4.857,0.649,9.846,4.142,13.339c3.497,3.497,8.487,5.042,13.338,4.143
			l117.512-21.763L22.012,376.747z"/> <polygon points="333.407,55.274 38.198,350.506 161.482,473.799 456.691,178.568"/> </g> 
    </symbol>
    <symbol id="svg_ok" viewBox="0 0 512 512">
       <path fill="currentColor" d="M504.502,75.496c-9.997-9.998-26.205-9.998-36.204,0L161.594,382.203L43.702,264.311c-9.997-9.998-26.205-9.997-36.204,0
		c-9.998,9.997-9.998,26.205,0,36.203l135.994,135.992c9.994,9.997,26.214,9.99,36.204,0L504.502,111.7
		C514.5,101.703,514.499,85.494,504.502,75.496z"/> 
    </symbol>
    <symbol id="svg_plus" viewBox="0 0 42 42">
       <polygon fill="currentColor" points="42,19 23,19 23,0 19,0 19,19 0,19 0,23 19,23 19,42 23,42 23,23 42,23 "/> 
    </symbol>
    <symbol id="svg_reports" viewBox="0 0 512 512">
       <g fill="currentColor"> <path d="M501,39H266.4V11h-20.9v28H11v369.9h154.7l-51.4,80.3l17.4,11.9l59-92.1h131.1l59,92l17.4-11.9l-51.4-80.2H501V39z     M481.2,387.4H31.9v-328h449.3V387.4z"/> <polygon points="235.1,197 270.6,299.2 399.7,181.1 392.6,270.2 412.4,272.3 422.8,146.5 307.1,135.7 305,156.2 386.7,164.4     278.9,262.6 243.5,161.6 93.4,293.8 106.9,310   "/> </g> 
    </symbol>
    <symbol id="svg_save" viewBox="0 0 459.74 459.74">
       <g fill="currentColor"> <path d="M131.636,143.669h164.531c13.439,0,24.363-10.925,24.363-24.363V1.034H107.273v118.271
			C107.273,132.744,118.197,143.669,131.636,143.669z"/> <path d="M121.37,261.238h99.401c8.471,0,15.325-6.87,15.325-15.325c0-8.456-6.854-15.324-15.325-15.324H121.37
			c-8.47,0-15.325,6.868-15.325,15.324C106.045,254.367,112.9,261.238,121.37,261.238z"/> <path d="M121.37,322.535h160.7c8.471,0,15.324-6.869,15.324-15.324c0-8.456-6.854-15.324-15.324-15.324h-160.7
			c-8.47,0-15.325,6.868-15.325,15.324C106.045,315.666,112.9,322.535,121.37,322.535z"/> <path d="M343.369,353.186H121.37c-8.47,0-15.325,6.868-15.325,15.325c0,8.454,6.855,15.324,15.325,15.324h221.999
			c8.47,0,15.324-6.87,15.324-15.324C358.693,360.054,351.839,353.186,343.369,353.186z"/> <path d="M367.792,1.034H351.18v118.271c0,30.334-24.664,55.013-55.013,55.013H131.636c-30.349,0-55.012-24.679-55.012-55.013
			V1.034h-26.19C22.598,1.034,0,23.616,0,51.481v356.777c0,27.866,22.598,50.449,50.434,50.449h358.873
			c27.864,0,50.434-22.582,50.434-50.449V93.609L367.792,1.034z M390.753,374.032c0,17.046-13.829,30.859-30.859,30.859H97.846
			c-17.032,0-30.859-13.813-30.859-30.859V240.375c0-17.046,13.827-30.872,30.859-30.872h262.048
			c17.03,0,30.859,13.826,30.859,30.872V374.032z M425.259,155.162h-44.058v-44.058h44.058V155.162z"/> </g> 
    </symbol>
    <symbol id="svg_send" viewBox="0 0 472.615 472.615">
       <path fill="currentColor" d="M471.197,70.93c-0.284-0.378-0.474-0.757-0.756-1.039c-2.648-3.215-6.996-4.255-10.778-2.741L6.088,239.77
			c-3.97,1.511-6.428,5.389-6.049,9.64c0.284,4.161,3.403,7.657,7.562,8.415l124.029,24.106l26.565,116.184l0.094,0.663
			c0.189,0.754,0.378,1.417,0.756,2.077c0.189,0.379,0.473,0.852,0.756,1.231c0.378,0.567,0.851,1.041,1.229,1.511
			c1.229,1.135,2.741,1.985,4.348,2.271c0.19,0.093,0.473,0.187,0.663,0.187c0.473,0,1.04,0.095,1.512,0.095
			c0.662,0,1.229-0.095,1.89-0.189c0.284-0.093,0.567-0.093,0.945-0.282c0.095,0,0.189,0,0.284-0.096
			c0.567-0.189,1.04-0.376,1.513-0.661h0.095c0.188-0.189,0.473-0.284,0.661-0.473l130.079-91.414l73.548,13.896
			c0.567,0.095,1.23,0.095,1.797,0.095c3.97,0,7.562-2.458,8.886-6.239l84.797-241.538c0.189-0.471,0.284-0.944,0.378-1.417
			c0.189-0.661,0.189-1.417,0.189-2.08C472.615,74.05,472.143,72.347,471.197,70.93z M224.085,282.783
			c-0.567,0.471-1.134,1.133-1.419,1.796c-0.188,0.095-0.283,0.189-0.377,0.378l-50.86,86.404l-21.175-92.928l235.012-143.786
			L224.085,282.783z"/> 
    </symbol>
    <symbol id="svg_settings" viewBox="0 0 478.703 478.703">
       <g fill="currentColor"> <path d="M454.2,189.101l-33.6-5.7c-3.5-11.3-8-22.2-13.5-32.6l19.8-27.7c8.4-11.8,7.1-27.9-3.2-38.1l-29.8-29.8
			c-5.6-5.6-13-8.7-20.9-8.7c-6.2,0-12.1,1.9-17.1,5.5l-27.8,19.8c-10.8-5.7-22.1-10.4-33.8-13.9l-5.6-33.2
			c-2.4-14.3-14.7-24.7-29.2-24.7h-42.1c-14.5,0-26.8,10.4-29.2,24.7l-5.8,34c-11.2,3.5-22.1,8.1-32.5,13.7l-27.5-19.8
			c-5-3.6-11-5.5-17.2-5.5c-7.9,0-15.4,3.1-20.9,8.7l-29.9,29.8c-10.2,10.2-11.6,26.3-3.2,38.1l20,28.1
			c-5.5,10.5-9.9,21.4-13.3,32.7l-33.2,5.6c-14.3,2.4-24.7,14.7-24.7,29.2v42.1c0,14.5,10.4,26.8,24.7,29.2l34,5.8
			c3.5,11.2,8.1,22.1,13.7,32.5l-19.7,27.4c-8.4,11.8-7.1,27.9,3.2,38.1l29.8,29.8c5.6,5.6,13,8.7,20.9,8.7c6.2,0,12.1-1.9,17.1-5.5
			l28.1-20c10.1,5.3,20.7,9.6,31.6,13l5.6,33.6c2.4,14.3,14.7,24.7,29.2,24.7h42.2c14.5,0,26.8-10.4,29.2-24.7l5.7-33.6
			c11.3-3.5,22.2-8,32.6-13.5l27.7,19.8c5,3.6,11,5.5,17.2,5.5l0,0c7.9,0,15.3-3.1,20.9-8.7l29.8-29.8c10.2-10.2,11.6-26.3,3.2-38.1
			l-19.8-27.8c5.5-10.5,10.1-21.4,13.5-32.6l33.6-5.6c14.3-2.4,24.7-14.7,24.7-29.2v-42.1
			C478.9,203.801,468.5,191.501,454.2,189.101z M451.9,260.401c0,1.3-0.9,2.4-2.2,2.6l-42,7c-5.3,0.9-9.5,4.8-10.8,9.9
			c-3.8,14.7-9.6,28.8-17.4,41.9c-2.7,4.6-2.5,10.3,0.6,14.7l24.7,34.8c0.7,1,0.6,2.5-0.3,3.4l-29.8,29.8c-0.7,0.7-1.4,0.8-1.9,0.8
			c-0.6,0-1.1-0.2-1.5-0.5l-34.7-24.7c-4.3-3.1-10.1-3.3-14.7-0.6c-13.1,7.8-27.2,13.6-41.9,17.4c-5.2,1.3-9.1,5.6-9.9,10.8l-7.1,42
			c-0.2,1.3-1.3,2.2-2.6,2.2h-42.1c-1.3,0-2.4-0.9-2.6-2.2l-7-42c-0.9-5.3-4.8-9.5-9.9-10.8c-14.3-3.7-28.1-9.4-41-16.8
			c-2.1-1.2-4.5-1.8-6.8-1.8c-2.7,0-5.5,0.8-7.8,2.5l-35,24.9c-0.5,0.3-1,0.5-1.5,0.5c-0.4,0-1.2-0.1-1.9-0.8l-29.8-29.8
			c-0.9-0.9-1-2.3-0.3-3.4l24.6-34.5c3.1-4.4,3.3-10.2,0.6-14.8c-7.8-13-13.8-27.1-17.6-41.8c-1.4-5.1-5.6-9-10.8-9.9l-42.3-7.2
			c-1.3-0.2-2.2-1.3-2.2-2.6v-42.1c0-1.3,0.9-2.4,2.2-2.6l41.7-7c5.3-0.9,9.6-4.8,10.9-10c3.7-14.7,9.4-28.9,17.1-42
			c2.7-4.6,2.4-10.3-0.7-14.6l-24.9-35c-0.7-1-0.6-2.5,0.3-3.4l29.8-29.8c0.7-0.7,1.4-0.8,1.9-0.8c0.6,0,1.1,0.2,1.5,0.5l34.5,24.6
			c4.4,3.1,10.2,3.3,14.8,0.6c13-7.8,27.1-13.8,41.8-17.6c5.1-1.4,9-5.6,9.9-10.8l7.2-42.3c0.2-1.3,1.3-2.2,2.6-2.2h42.1
			c1.3,0,2.4,0.9,2.6,2.2l7,41.7c0.9,5.3,4.8,9.6,10,10.9c15.1,3.8,29.5,9.7,42.9,17.6c4.6,2.7,10.3,2.5,14.7-0.6l34.5-24.8
			c0.5-0.3,1-0.5,1.5-0.5c0.4,0,1.2,0.1,1.9,0.8l29.8,29.8c0.9,0.9,1,2.3,0.3,3.4l-24.7,34.7c-3.1,4.3-3.3,10.1-0.6,14.7
			c7.8,13.1,13.6,27.2,17.4,41.9c1.3,5.2,5.6,9.1,10.8,9.9l42,7.1c1.3,0.2,2.2,1.3,2.2,2.6v42.1H451.9z"/> <path d="M239.4,136.001c-57,0-103.3,46.3-103.3,103.3s46.3,103.3,103.3,103.3s103.3-46.3,103.3-103.3S296.4,136.001,239.4,136.001
			z M239.4,315.601c-42.1,0-76.3-34.2-76.3-76.3s34.2-76.3,76.3-76.3s76.3,34.2,76.3,76.3S281.5,315.601,239.4,315.601z"/> </g> 
    </symbol>
    <symbol id="svg_students" viewBox="0 0 31.936 31.936">
       <g fill="currentColor"> <path d="M14.552,16.673v-2.947c0,0-2.659-1.407-5.301-1.407s-5.22,1.448-5.22,1.448v2.372c-0.757,1.431-0.719,2.881-0.719,2.881
			l0.448,7.32l-0.226,2.171h5.565l-1.635-3.102l0.484-0.12v-1.845c-1.869-0.586-3.247-2.252-3.401-4.272l1.283,0.183v0.783h3.361
			v-0.554h0.592v0.554h3.361v-0.762l1.068-0.167c-0.062,1.692-0.936,3.957-3.531,4.294v1.722h0.007l0.618,0.294l-1.661,2.992h3.2
			c0.012-0.066,0.022-0.135,0.034-0.202l0.028,0.202h2.11l-0.331-2.996c0.107-0.797,0.473-2.045,0.525-3.291
			c0.048-1.1,0.103-3.498-0.696-5.564C14.539,16.668,14.552,16.673,14.552,16.673z M8.816,19.764H6.204v-1.329h2.612V19.764z
			 M12.771,19.764h-2.613v-1.329h2.613V19.764z M13.145,18.807V18.06H9.783v0.778H9.191V18.06H5.83v0.729l-1.297-0.188
			c0.01-0.095,0.024-0.188,0.033-0.284c1.352-0.091,2.878-1.156,2.997-2.638c1.708,1.415,4.131,1.484,6.149,1.667
			c0.251,0.116,0.438,0.624,0.489,1.298L13.145,18.807z"/> <path d="M18.55,12.511l-1.047-0.579v-0.275c0,0,0.295-1.493-1.379-0.713c-0.085,0.047-0.131,0.094-0.149,0.139L9.071,7.255
			L0,12.447l3.426,1.556v-0.506c0,0,2.874-1.613,5.82-1.613c2.946,0,5.911,1.568,5.911,1.568v0.883l1.89-1.016
			c0,1.177,0,3.692,0,4.112h-0.629v1.462l0.837-0.579l0.929,0.579v-1.462h-0.681v-4.358L18.55,12.511z M17.047,11.404
			c0,0.035,0,0.133,0,0.275l-0.552-0.306C16.697,11.238,17.047,11.055,17.047,11.404z M16.859,13.017
			c-0.243,0-0.441-0.198-0.441-0.441c0-0.245,0.198-0.443,0.441-0.443c0.244,0,0.442,0.198,0.442,0.443
			C17.303,12.819,17.104,13.017,16.859,13.017z"/> <polygon points="28.984,16.966 27.948,16.966 26.395,16.966 24.842,18.825 23.238,16.966 21.6,16.966 20.43,16.966 19.527,16.966
			19.527,19.731 29.866,19.731 29.785,16.966 		"/> <path d="M24.77,16.333c2.324,0,4.209-1.883,4.209-4.207c0-0.521-0.102-1.021-0.275-1.482c0.09,0.034,0.145,0.057,0.145,0.057
			V8.423c0,0-2.055-1.087-4.095-1.087c-2.041,0-4.032,1.118-4.032,1.118V10.7c0,0,0.041-0.018,0.113-0.045
			c-0.171,0.459-0.27,0.953-0.27,1.471C20.562,14.45,22.445,16.333,24.77,16.333z"/> <path d="M31.127,7.919l0.809-0.434l-0.809-0.448V6.825c0,0,0.229-1.154-1.064-0.551c-0.066,0.037-0.103,0.072-0.117,0.107
			l-5.332-2.956l-7.008,4.01l2.646,1.203V8.247c0,0,2.22-1.246,4.496-1.246s4.565,1.211,4.565,1.211v0.682l1.461-0.784
			c0,0.909,0,2.853,0,3.177h-0.486v1.128l0.646-0.447l0.719,0.447v-1.129h-0.526L31.127,7.919L31.127,7.919z M30.773,6.63
			c0,0.027,0,0.102,0,0.212l-0.426-0.236C30.504,6.502,30.773,6.361,30.773,6.63z M30.63,7.875c-0.188,0-0.342-0.151-0.342-0.341
			s0.153-0.342,0.342-0.342s0.343,0.152,0.343,0.342S30.818,7.875,30.63,7.875z"/> </g> 
    </symbol>
    <symbol id="svg_triangle_down" viewBox="0 0 292.362 292.362">
       <path fill="currentColor" d="M286.935,69.377c-3.614-3.617-7.898-5.424-12.848-5.424H18.274c-4.952,0-9.233,1.807-12.85,5.424
		C1.807,72.998,0,77.279,0,82.228c0,4.948,1.807,9.229,5.424,12.847l127.907,127.907c3.621,3.617,7.902,5.428,12.85,5.428
		s9.233-1.811,12.847-5.428L286.935,95.074c3.613-3.617,5.427-7.898,5.427-12.847C292.362,77.279,290.548,72.998,286.935,69.377z"/> 
    </symbol>
    <symbol id="svg_user" viewBox="0 0 487.6 487.6">
       <path fill="currentColor" d="M0,243.8c0,134.4,109.4,243.8,243.8,243.8s243.8-109.4,243.8-243.8S378.2,0,243.8,0C109.4,0,0,109.4,0,243.8z
  	 M101.9,410.8c36-24.3,66.9-39.9,76-44.4c5.5-2.7,9-8.2,9-14.4v-30.6c0-2.2-0.6-4.3-1.7-6.2c-6.2-10.5-10.5-23.1-12.7-37.4
  	c-0.7-4.8-4.3-8.7-8.8-9.9c-1.2-1.5-4.6-6.7-8.9-21.8c-3.4-12-3.4-17.9-3.1-20.3c3.7,0,7.3-1.7,9.6-4.7c2.6-3.3,3.3-7.7,1.9-11.6
  	c-4.8-13.6-5.4-27.5-1.7-41.7c3.2-13.6,10.5-26.4,21.8-38c6.1-6.5,13.1-12.3,20.6-17c0.1-0.1,0.3-0.2,0.4-0.3
  	c6.3-4.4,12.8-7.7,19.3-9.9h0.1c5.5-1.9,11.2-2.9,17.3-3.2c16.4-1.4,31.1,1.6,44,9.3c14.2,7.8,19.9,18,19.9,18
  	c2,3.8,5.8,6.3,10,6.6c0.1,0,5.5,1,10.4,7.4c5.8,7.7,14,27.7,4,76c-1.1,5.5,1.6,11,6.5,13.4c0.4,1.9,0.9,7.7-2.9,21.2
  	c-3.4,12-6.2,17.7-7.9,20.3c-2.1-0.3-4.4,0-6.4,0.8c-3.8,1.6-6.6,5.1-7.3,9.1c-2,11.3-5.1,21.4-9.3,30c-0.8,1.7-1.2,3.5-1.2,5.3
  	v35.4c0,6.2,3.4,11.7,9,14.4c9.2,4.5,40.1,20.2,76,44.4c-38.3,32.6-87.8,52.3-141.9,52.3C189.7,463.1,140.2,443.4,101.9,410.8z
  	 M243.8,24.5c120.9,0,219.3,98.4,219.3,219.3c0,57.8-22.5,110.5-59.2,149.7c-34.3-23.5-64.8-39.8-78.6-46.7v-27.4
  	c3.3-7.2,6-15.2,8-23.7c9.8-3.7,16.7-15.1,23.2-38c5.9-20.9,5.4-35.6-1.6-44c7.3-40.1,4-69.7-9.9-88c-7.2-9.6-15.6-13.8-21.4-15.6
  	c-4.1-5.8-12.4-15.2-26.2-22.8c-17.1-10.1-36.7-14.3-57.8-12.5c-8,0.4-15.9,1.9-23.6,4.5h-0.1c-8.6,2.9-17,7.2-25.1,12.8
  	c-9.2,5.9-17.7,12.9-25,20.6c-14.4,14.7-23.8,31.3-27.9,49c-3.8,14.6-4.2,29.2-1.1,43.6c-1.3,1-2.6,2.1-3.7,3.5
  	c-7.2,8.7-7.8,22.6-1.8,43.9c4,14.1,9.2,28.6,18.2,35.3c2.7,13.5,7,25.8,12.9,36.6v22.2c-13.7,6.9-44.3,23.2-78.6,46.7
  	c-36.7-39.2-59.3-91.9-59.3-149.7C24.5,122.9,122.9,24.5,243.8,24.5z"/> 
    </symbol>
    <symbol id="svg_video" viewBox="0 0 611.921 611.921">
       <path fill="currentColor" d="M598.506,69.911h-97.422h-97.422H306.31h-97.422h-97.422h-98.11C5.921,69.911,0,75.832,0,83.268v81.793v281.8v81.793
		c0,7.436,5.921,13.357,13.357,13.357h97.353h98.179h97.422h97.422h97.353h97.422c7.436,0,13.357-5.921,13.357-13.357V446.86v-281.8
		V83.268C612.62,75.832,605.941,69.911,598.506,69.911z M501.084,432.746h-97.422H306.31h-97.422h-97.422H27.471V178.418h83.996
		h97.422h97.422h97.422h97.353h83.996v254.329H501.084z M585.149,150.947h-69.882V96.694h69.882V150.947z M487.727,150.947h-70.639
		V96.694h69.882v54.253H487.727z M389.548,150.947h-69.882V96.694h69.882V150.947L389.548,150.947z M292.196,150.947h-69.951V96.694
		h69.882L292.196,150.947L292.196,150.947z M194.774,150.947h-69.882V96.694h69.882V150.947z M27.471,97.382h69.882v54.253H27.471
		V97.382z M27.471,460.286h69.882v54.253H27.471V460.286z M124.892,460.286h69.882v54.253h-69.882V460.286L124.892,460.286z
		 M222.245,460.286h69.882v54.253h-69.882V460.286L222.245,460.286z M319.667,460.286h69.882v54.253h-69.882V460.286z
		 M417.088,460.286h69.882v54.253h-69.882V460.286z M585.149,514.539h-69.882v-54.253h69.882V514.539z M381.424,292.982
		l-115.253-66.921c-4.475-2.203-9.639-2.203-13.357,0c-4.475,2.203-6.678,6.678-6.678,11.911v133.085
		c0,5.233,2.961,9.639,6.678,11.911c2.203,1.515,4.475,1.515,6.678,1.515c2.203,0,4.475-0.757,6.678-1.515l115.253-66.921
		c4.475-2.203,6.678-6.678,6.678-11.911C388.103,300.418,385.142,295.943,381.424,292.982z M272.849,347.993v-85.511l74.357,43.1
		L272.849,347.993z"/> 
    </symbol></svg>